<svg width="750" height="240" xmlns="http://www.w3.org/2000/svg">
  <!-- Table Border -->
  <rect x="10" y="10" width="730" height="220" fill="none" stroke="black" stroke-width="2"/>

  <!-- Horizontal Lines -->
  <line x1="10" y1="50" x2="740" y2="50" stroke="black" stroke-width="1"/>
  <line x1="10" y1="90" x2="740" y2="90" stroke="black" stroke-width="1"/>
  <line x1="10" y1="130" x2="740" y2="130" stroke="black" stroke-width="1"/>
  <line x1="10" y1="170" x2="740" y2="170" stroke="black" stroke-width="1"/>
  <line x1="10" y1="210" x2="740" y2="210" stroke="black" stroke-width="1"/>

  <!-- Vertical Lines -->
  <line x1="140" y1="10" x2="140" y2="230" stroke="black" stroke-width="1"/>
  <line x1="210" y1="10" x2="210" y2="230" stroke="black" stroke-width="1"/>
  <line x1="280" y1="10" x2="280" y2="230" stroke="black" stroke-width="1"/>
  <line x1="350" y1="10" x2="350" y2="230" stroke="black" stroke-width="1"/>
  <line x1="420" y1="10" x2="420" y2="230" stroke="black" stroke-width="1"/>
  <line x1="490" y1="10" x2="490" y2="230" stroke="black" stroke-width="1"/>
  <line x1="560" y1="10" x2="560" y2="230" stroke="black" stroke-width="1"/>
  <line x1="640" y1="10" x2="640" y2="230" stroke="black" stroke-width="1"/>

  <!-- Headers -->
  <text x="20" y="35" font-family="Arial" font-size="14" font-weight="bold">Day</text>
  <text x="150" y="35" font-family="Arial" font-size="14" font-weight="bold">5 of 5</text>
  <text x="220" y="35" font-family="Arial" font-size="14" font-weight="bold">4 of 5</text>
  <text x="290" y="35" font-family="Arial" font-size="14" font-weight="bold">3 of 5</text>
  <text x="360" y="35" font-family="Arial" font-size="14" font-weight="bold">2 of 5</text>
  <text x="430" y="35" font-family="Arial" font-size="14" font-weight="bold">1 of 5</text>
  <text x="500" y="35" font-family="Arial" font-size="14" font-weight="bold">0 of 5</text>
  <text x="570" y="35" font-family="Arial" font-size="14" font-weight="bold">Total</text>

  <!-- Data Rows -->
  <text x="20" y="75" font-family="Arial" font-size="14">Day 1</text>
  <text x="150" y="75" font-family="Arial" font-size="14">2</text>
  <text x="220" y="75" font-family="Arial" font-size="14">3</text>
  <text x="290" y="75" font-family="Arial" font-size="14">4</text>
  <text x="360" y="75" font-family="Arial" font-size="14">6</text>
  <text x="430" y="75" font-family="Arial" font-size="14">2</text>
  <text x="500" y="75" font-family="Arial" font-size="14">3</text>
  <text x="570" y="75" font-family="Arial" font-size="14">20</text>

  <text x="20" y="115" font-family="Arial" font-size="14">Day 2</text>
  <text x="150" y="115" font-family="Arial" font-size="14">2</text>
  <text x="220" y="115" font-family="Arial" font-size="14">3</text>
  <text x="290" y="115" font-family="Arial" font-size="14">5</text>
  <text x="360" y="115" font-family="Arial" font-size="14">5</text>
  <text x="430" y="115" font-family="Arial" font-size="14">4</text>
  <text x="500" y="115" font-family="Arial" font-size="14">1</text>
  <text x="570" y="115" font-family="Arial" font-size="14">20</text>

  <text x="20" y="155" font-family="Arial" font-size="14">Day 3</text>
  <text x="150" y="155" font-family="Arial" font-size="14">3</text>
  <text x="220" y="155" font-family="Arial" font-size="14">3</text>
  <text x="290" y="155" font-family="Arial" font-size="14">4</text>
  <text x="360" y="155" font-family="Arial" font-size="14">5</text>
  <text x="430" y="155" font-family="Arial" font-size="14">3</text>
  <text x="500" y="155" font-family="Arial" font-size="14">2</text>
  <text x="570" y="155" font-family="Arial" font-size="14">20</text>

  <text x="20" y="195" font-family="Arial" font-size="14" font-weight="bold">Total</text>
  <text x="150" y="195" font-family="Arial" font-size="14" font-weight="bold">7</text>
  <text x="220" y="195" font-family="Arial" font-size="14" font-weight="bold">9</text>
  <text x="290" y="195" font-family="Arial" font-size="14" font-weight="bold">13</text>
  <text x="360" y="195" font-family="Arial" font-size="14" font-weight="bold">16</text>
  <text x="430" y="195" font-family="Arial" font-size="14" font-weight="bold">9</text>
  <text x="500" y="195" font-family="Arial" font-size="14" font-weight="bold">6</text>
  <text x="570" y="195" font-family="Arial" font-size="14" font-weight="bold">60</text>
</svg>