<svg width="700" height="280" xmlns="http://www.w3.org/2000/svg">
  <!-- Table Outline -->
  <rect x="10" y="10" width="680" height="260" fill="none" stroke="black" stroke-width="2"/>

  <!-- Horizontal Lines -->
  <line x1="10" y1="60" x2="690" y2="60" stroke="black" stroke-width="1"/>
  <line x1="10" y1="110" x2="690" y2="110" stroke="black" stroke-width="1"/>
  <line x1="10" y1="160" x2="690" y2="160" stroke="black" stroke-width="1"/>
  <line x1="10" y1="210" x2="690" y2="210" stroke="black" stroke-width="1"/>
  <line x1="10" y1="260" x2="690" y2="260" stroke="black" stroke-width="1"/>

  <!-- Vertical Lines -->
  <line x1="220" y1="10" x2="220" y2="270" stroke="black" stroke-width="1"/>
  <line x1="400" y1="10" x2="400" y2="270" stroke="black" stroke-width="1"/>
  <line x1="530" y1="10" x2="530" y2="270" stroke="black" stroke-width="1"/>
  <line x1="620" y1="10" x2="620" y2="270" stroke="black" stroke-width="1"/>

  <!-- Headers -->
  <text x="20" y="45" font-family="Arial" font-size="14" font-weight="bold">Texting behavior</text>
  <text x="230" y="45" font-family="Arial" font-size="14" font-weight="bold">Talks on cell phone daily</text>
  <text x="410" y="45" font-family="Arial" font-size="14" font-weight="bold">Does not talk daily</text>
  <text x="540" y="45" font-family="Arial" font-size="14" font-weight="bold">Total</text>

  <!-- Data Rows -->
  <text x="20" y="95" font-family="Arial" font-size="14">Light</text>
  <text x="230" y="95" font-family="Arial" font-size="14">110</text>
  <text x="410" y="95" font-family="Arial" font-size="14">146</text>
  <text x="540" y="95" font-family="Arial" font-size="14">256</text>

  <text x="20" y="145" font-family="Arial" font-size="14">Medium</text>
  <text x="230" y="145" font-family="Arial" font-size="14">139</text>
  <text x="410" y="145" font-family="Arial" font-size="14">164</text>
  <text x="540" y="145" font-family="Arial" font-size="14">303</text>

  <text x="20" y="195" font-family="Arial" font-size="14">Heavy</text>
  <text x="230" y="195" font-family="Arial" font-size="14">166</text>
  <text x="410" y="195" font-family="Arial" font-size="14">74</text>
  <text x="540" y="195" font-family="Arial" font-size="14">240</text>

  <text x="20" y="245" font-family="Arial" font-size="14" font-weight="bold">Total</text>
  <text x="230" y="245" font-family="Arial" font-size="14" font-weight="bold">415</text>
  <text x="410" y="245" font-family="Arial" font-size="14" font-weight="bold">384</text>
  <text x="540" y="245" font-family="Arial" font-size="14" font-weight="bold">799</text>
</svg>