<svg width="350" height="300" viewBox="0 0 350 300" xmlns="http://www.w3.org/2000/svg">
  <!-- Table outline -->
  <rect x="50" y="50" width="200" height="150" fill="none" stroke="#000000" stroke-width="2"/>
  
  <!-- Header row -->
  <rect x="50" y="50" width="200" height="25" fill="none" stroke="#000000" stroke-width="1"/>
  <line x1="150" y1="50" x2="150" y2="75" stroke="#000000" stroke-width="1"/>
  
  <!-- Table rows -->
  <line x1="50" y1="75" x2="250" y2="75" stroke="#000000" stroke-width="1"/>
  <line x1="50" y1="100" x2="250" y2="100" stroke="#000000" stroke-width="1"/>
  <line x1="50" y1="125" x2="250" y2="125" stroke="#000000" stroke-width="1"/>
  <line x1="50" y1="150" x2="250" y2="150" stroke="#000000" stroke-width="1"/>
  <line x1="50" y1="175" x2="250" y2="175" stroke="#000000" stroke-width="1"/>
  <line x1="50" y1="200" x2="250" y2="200" stroke="#000000" stroke-width="1"/>
  
  <!-- Vertical separator -->
  <line x1="150" y1="50" x2="150" y2="200" stroke="#000000" stroke-width="1"/>
  
  <!-- Header text -->
  <text x="100" y="67" font-family="Arial, sans-serif" font-size="14" font-weight="bold" text-anchor="middle" fill="#000000">Subject</text>
  <text x="200" y="67" font-family="Arial, sans-serif" font-size="14" font-weight="bold" text-anchor="middle" fill="#000000">Grade</text>
  
  <!-- Subject names -->
  <text x="60" y="92" font-family="Arial, sans-serif" font-size="14" fill="#000000">Math</text>
  <text x="60" y="117" font-family="Arial, sans-serif" font-size="14" fill="#000000">English</text>
  <text x="60" y="142" font-family="Arial, sans-serif" font-size="14" fill="#000000">Chemistry</text>
  <text x="60" y="167" font-family="Arial, sans-serif" font-size="14" fill="#000000">Physics</text>
  <text x="60" y="192" font-family="Arial, sans-serif" font-size="14" fill="#000000">French</text>
  
  <!-- Grades -->
  <text x="200" y="92" font-family="Arial, sans-serif" font-size="14" text-anchor="middle" fill="#000000">A</text>
  <text x="200" y="142" font-family="Arial, sans-serif" font-size="14" text-anchor="middle" fill="#000000">D</text>
  <text x="200" y="192" font-family="Arial, sans-serif" font-size="14" text-anchor="middle" fill="#000000">B</text>
  
  <!-- Conversions text -->
  <text x="50" y="235" font-family="Arial, sans-serif" font-size="14" fill="#000000">Conversions: A = 4, B = 3, C = 2, D = 1,</text>
  <text x="125" y="255" font-family="Arial, sans-serif" font-size="14" fill="#000000">Fail = 0.</text>
  
  <!-- Problem number -->
  <text x="20" y="25" font-family="Arial, sans-serif" font-size="16" fill="#000000">79.</text>
</svg>